<?xml version="1.0" encoding="utf-8"?>
<!-- Generator: Adobe Illustrator 21.1.0, SVG Export Plug-In . SVG Version: 6.00 Build 0)  -->
<svg version="1.1" id="Layer_1" xmlns="http://www.w3.org/2000/svg" xmlns:xlink="http://www.w3.org/1999/xlink" x="0px" y="0px"
	 viewBox="0 0 490.6 490.6" style="enable-background:new 0 0 490.6 490.6;" xml:space="preserve">
<style type="text/css">
	.st0{fill:none;}
</style>
<g>
	<path class="st0" d="M436.5,100.6c-4.4-11.5-9.8-19.6-18.3-28.2c-8.6-8.6-16.8-13.9-28.2-18.3c-8.6-3.4-21.6-7.4-45.5-8.4
		c-25.9-1.2-33.6-1.4-99.1-1.4c-65.5,0-73.2,0.3-99.1,1.4c-23.9,1.1-36.9,5.1-45.5,8.4C89.2,58.5,81,63.8,72.4,72.4
		c-8.6,8.6-13.9,16.8-18.3,28.2c-3.4,8.6-7.4,21.6-8.4,45.5c-1.2,25.9-1.4,33.6-1.4,99.1s0.3,73.3,1.4,99.1
		c1.1,23.9,5.1,36.9,8.4,45.5c4.5,11.4,9.8,19.6,18.3,28.2c8.6,8.6,16.8,13.9,28.2,18.3c8.6,3.4,21.6,7.4,45.5,8.4
		c25.9,1.2,33.6,1.4,99.1,1.4c6,0,11.6,0,16.7,0c0-4.5,0-87.6,0-163h-43.7v-60.5H262v-47c0-28.1,13.7-71.8,73.9-71.8l44.1,0.2v58.7
		c0,0-32.1,0-38.5,0c-6.4,0-20.2,3.1-20.2,16.4v43.5h59.6l-9.2,60.5h-50.4c0,72.7,0,154.2,0,162.5c7.6-0.2,14.3-0.5,23.1-0.9
		c23.9-1.1,36.9-5.1,45.5-8.4c11.5-4.4,19.6-9.8,28.2-18.3c8.6-8.6,13.9-16.8,18.3-28.2c3.4-8.6,7.4-21.6,8.4-45.5
		c1.2-25.9,1.4-33.6,1.4-99.1s-0.3-73.2-1.4-99.1C443.8,122.3,439.8,109.3,436.5,100.6z"/>
	<path d="M489.1,144.2c-1.2-26.1-5.3-43.9-11.4-59.5c-6.3-16.1-14.7-29.8-28.3-43.4c-13.6-13.6-27.3-22-43.4-28.3
		c-15.6-6.1-33.4-10.2-59.5-11.4C320.2,0.3,311.9,0,245.3,0c-66.6,0-75,0.3-101.1,1.5C118,2.7,100.2,6.8,84.6,12.9
		c-16.1,6.3-29.8,14.7-43.4,28.3c-13.6,13.6-22,27.3-28.3,43.4C6.8,100.2,2.7,118,1.5,144.2C0.3,170.3,0,178.7,0,245.3
		c0,66.6,0.3,75,1.5,101.1c1.2,26.1,5.3,43.9,11.4,59.5c6.3,16.1,14.7,29.8,28.3,43.4c13.6,13.6,27.3,22,43.4,28.3
		c15.6,6.1,33.4,10.2,59.5,11.4c26.2,1.2,34.5,1.5,101.1,1.5c66.6,0,75-0.3,101.1-1.5c26.1-1.2,43.9-5.3,59.5-11.4
		c16.1-6.3,29.8-14.7,43.4-28.3c13.6-13.6,22-27.3,28.3-43.4c6.1-15.6,10.2-33.4,11.4-59.5c1.2-26.2,1.5-34.5,1.5-101.1
		C490.6,178.7,490.3,170.3,489.1,144.2z M444.9,344.4c-1.1,23.9-5.1,36.9-8.4,45.5c-4.4,11.4-9.8,19.6-18.3,28.2
		c-8.6,8.6-16.8,13.9-28.2,18.3c-8.6,3.4-21.6,7.4-45.5,8.4c-8.8,0.4-15.5,0.7-23.1,0.9c0-8.4,0-89.8,0-162.5h50.4l9.2-60.5h-59.6
		v-43.5c0-13.3,13.8-16.4,20.2-16.4c6.4,0,38.5,0,38.5,0v-58.7l-44.1-0.2c-60.2,0-73.9,43.8-73.9,71.8v47h-43.7v60.5H262
		c0,75.5,0,158.5,0,163c-5.1,0-10.6,0-16.7,0c-65.5,0-73.3-0.2-99.1-1.4c-23.9-1.1-36.9-5.1-45.5-8.4c-11.4-4.4-19.6-9.8-28.2-18.3
		c-8.6-8.6-13.9-16.8-18.3-28.2c-3.4-8.6-7.4-21.6-8.4-45.5c-1.2-25.9-1.4-33.6-1.4-99.1s0.3-73.2,1.4-99.1
		c1.1-23.9,5.1-36.9,8.4-45.5c4.5-11.4,9.8-19.6,18.3-28.2c8.6-8.6,16.8-13.9,28.2-18.3c8.6-3.4,21.6-7.4,45.5-8.4
		c25.9-1.2,33.6-1.4,99.1-1.4c65.5,0,73.2,0.3,99.1,1.4c23.9,1.1,36.9,5.1,45.5,8.4c11.5,4.4,19.6,9.8,28.2,18.3
		c8.6,8.6,13.9,16.8,18.3,28.2c3.4,8.6,7.4,21.6,8.4,45.5c1.2,25.9,1.4,33.6,1.4,99.1S446.1,318.5,444.9,344.4z"/>
</g>
</svg>
