<?xml version="1.0" encoding="utf-8"?>
<!-- Generator: Adobe Illustrator 21.1.0, SVG Export Plug-In . SVG Version: 6.00 Build 0)  -->
<svg version="1.1" id="Layer_1" xmlns="http://www.w3.org/2000/svg" xmlns:xlink="http://www.w3.org/1999/xlink" x="0px" y="0px"
	 viewBox="0 0 800 800" style="enable-background:new 0 0 800 800;" xml:space="preserve">
<g>
	<path d="M400,72.1c106.8,0,119.5,0.4,161.6,2.3c39,1.8,60.2,8.3,74.3,13.8c18.7,7.3,32,15.9,46,29.9c14,14,22.7,27.3,29.9,46
		c5.5,14.1,12,35.3,13.8,74.3c1.9,42.2,2.3,54.8,2.3,161.6s-0.4,119.5-2.3,161.6c-1.8,39-8.3,60.2-13.8,74.3
		c-7.3,18.7-15.9,32-29.9,46c-14,14-27.3,22.7-46,29.9c-14.1,5.5-35.3,12-74.3,13.8c-42.2,1.9-54.8,2.3-161.6,2.3
		c-106.8,0-119.5-0.4-161.6-2.3c-39-1.8-60.2-8.3-74.3-13.8c-18.7-7.3-32-15.9-46-29.9c-14-14-22.7-27.3-29.9-46
		c-5.5-14.1-12-35.3-13.8-74.3c-1.9-42.2-2.3-54.8-2.3-161.6s0.4-119.5,2.3-161.6c1.8-39,8.3-60.2,13.8-74.3
		c7.3-18.7,15.9-32,29.9-46c14-14,27.3-22.7,46-29.9c14.1-5.5,35.3-12,74.3-13.8C280.5,72.5,293.2,72.1,400,72.1 M400,0
		C291.4,0,277.7,0.5,235.1,2.4C192.5,4.3,163.4,11.1,138,21c-26.3,10.2-48.6,23.9-70.8,46.1C44.9,89.4,31.2,111.7,21,138
		c-9.9,25.4-16.7,54.5-18.6,97.1C0.5,277.7,0,291.4,0,400c0,108.6,0.5,122.3,2.4,164.9c1.9,42.6,8.7,71.7,18.6,97.1
		c10.2,26.3,23.9,48.6,46.1,70.8c22.2,22.2,44.5,35.9,70.8,46.1c25.4,9.9,54.5,16.6,97.1,18.6c42.7,1.9,56.3,2.4,164.9,2.4
		c108.6,0,122.3-0.5,164.9-2.4c42.6-1.9,71.7-8.7,97.1-18.6c26.3-10.2,48.6-23.9,70.9-46.1c22.2-22.2,35.9-44.5,46.1-70.8
		c9.9-25.4,16.7-54.5,18.6-97.1c1.9-42.7,2.4-56.3,2.4-164.9c0-108.6-0.5-122.3-2.4-164.9c-1.9-42.6-8.7-71.7-18.6-97.1
		c-10.2-26.3-23.9-48.6-46.1-70.8C710.6,44.9,688.3,31.2,662,21c-25.4-9.9-54.5-16.7-97.1-18.6C522.3,0.5,508.6,0,400,0"/>
</g>
<g>
	<path d="M400,194.6c-113.4,0-205.4,92-205.4,205.4s92,205.4,205.4,205.4c113.4,0,205.4-92,205.4-205.4S513.4,194.6,400,194.6
		 M400,533.3c-73.6,0-133.3-59.7-133.3-133.3S326.4,266.7,400,266.7S533.3,326.4,533.3,400S473.6,533.3,400,533.3"/>
</g>
<g>
	<path d="M661.5,186.5c0,26.5-21.5,48-48,48c-26.5,0-48-21.5-48-48c0-26.5,21.5-48,48-48C640,138.5,661.5,160,661.5,186.5"/>
</g>
</svg>
